{
    "asset": {
        "version": "2.0",
        "generator": "Open Asset Import Library (assimp v5.0.5eb040c7)"
    },
    "accessors": [
        {
            "bufferView": 0,
            "byteOffset": 0,
            "componentType": 5126,
            "count": 2528,
            "type": "VEC3",
            "max": [
                0.988103985786438,
                1.55629301071167,
                0.8274049758911133
            ],
            "min": [
                0.0531340017914772,
                0.0005729999975301325,
                -1.1289539337158204
            ]
        },
        {
            "bufferView": 1,
            "byteOffset": 0,
            "componentType": 5126,
            "count": 2528,
            "type": "VEC3",
            "max": [
                0.9999907612800598,
                0.9998348951339722,
                0.9988059997558594
            ],
            "min": [
                -0.9988702535629273,
                -0.9999061226844788,
                -0.9994608759880066
            ]
        },
        {
            "bufferView": 2,
            "byteOffset": 0,
            "componentType": 5126,
            "count": 2528,
            "type": "VEC2",
            "max": [
                1.0,
                1.0
            ],
            "min": [
                0.0,
                0.0
            ]
        },
        {
            "bufferView": 3,
            "byteOffset": 0,
            "componentType": 5125,
            "count": 12468,
            "type": "SCALAR",
            "max": [
                2527
            ],
            "min": [
                0
            ]
        },
        {
            "bufferView": 4,
            "byteOffset": 0,
            "componentType": 5126,
            "count": 2528,
            "type": "VEC3",
            "max": [
                -0.0531340017914772,
                1.55629301071167,
                0.8274049758911133
            ],
            "min": [
                -0.988103985786438,
                0.0005729999975301325,
                -1.1289539337158204
            ]
        },
        {
            "bufferView": 5,
            "byteOffset": 0,
            "componentType": 5126,
            "count": 2528,
            "type": "VEC3",
            "max": [
                0.9988702535629273,
                0.9998348951339722,
                0.9988059997558594
            ],
            "min": [
                -0.9999907612800598,
                -0.9999061226844788,
                -0.9994608759880066
            ]
        },
        {
            "bufferView": 6,
            "byteOffset": 0,
            "componentType": 5126,
            "count": 2528,
            "type": "VEC2",
            "max": [
                1.0,
                1.0
            ],
            "min": [
                0.0,
                0.0
            ]
        },
        {
            "bufferView": 7,
            "byteOffset": 0,
            "componentType": 5125,
            "count": 12468,
            "type": "SCALAR",
            "max": [
                2527
            ],
            "min": [
                0
            ]
        }
    ],
    "buffers": [
        {
            "byteLength": 261536,
            "uri": "result.bin"
        }
    ],
    "bufferViews": [
        {
            "buffer": 0,
            "byteOffset": 0,
            "byteLength": 30336,
            "target": 34962
        },
        {
            "buffer": 0,
            "byteOffset": 30336,
            "byteLength": 30336,
            "target": 34962
        },
        {
            "buffer": 0,
            "byteOffset": 60672,
            "byteLength": 20224,
            "target": 34962
        },
        {
            "buffer": 0,
            "byteOffset": 80896,
            "byteLength": 49872,
            "target": 34963
        },
        {
            "buffer": 0,
            "byteOffset": 130768,
            "byteLength": 30336,
            "target": 34962
        },
        {
            "buffer": 0,
            "byteOffset": 161104,
            "byteLength": 30336,
            "target": 34962
        },
        {
            "buffer": 0,
            "byteOffset": 191440,
            "byteLength": 20224,
            "target": 34962
        },
        {
            "buffer": 0,
            "byteOffset": 211664,
            "byteLength": 49872,
            "target": 34963
        }
    ],
    "materials": [
        {
            "name": "DefaultMaterial",
            "pbrMetallicRoughness": {
                "baseColorFactor": [
                    0.6000000238418579,
                    0.6000000238418579,
                    0.6000000238418579,
                    1.0
                ],
                "metallicFactor": 0.0
            }
        },
        {
            "name": "Female_shoes",
            "pbrMetallicRoughness": {
                "baseColorFactor": [
                    0.6000000238418579,
                    0.6000000238418579,
                    0.6000000238418579,
                    1.0
                ],
                "metallicFactor": 0.0
            }
        }
    ],
    "meshes": [
        {
            "name": "polySurface158",
            "primitives": [
                {
                    "mode": 4,
                    "material": 1,
                    "indices": 3,
                    "attributes": {
                        "POSITION": 0,
                        "NORMAL": 1,
                        "TEXCOORD_0": 2
                    }
                }
            ]
        },
        {
            "name": "polySurface159",
            "primitives": [
                {
                    "mode": 4,
                    "material": 1,
                    "indices": 7,
                    "attributes": {
                        "POSITION": 4,
                        "NORMAL": 5,
                        "TEXCOORD_0": 6
                    }
                }
            ]
        }
    ],
    "nodes": [
        {
            "name": "input.obj",
            "children": [
                1,
                2,
                3,
                4
            ]
        },
        {
            "name": "default"
        },
        {
            "name": "polySurface158",
            "mesh": 0
        },
        {
            "name": "default_node"
        },
        {
            "name": "polySurface159",
            "mesh": 1
        }
    ],
    "scenes": [
        {
            "nodes": [
                0
            ]
        }
    ],
    "scene": 0
}