{
    "asset": {
        "version": "2.0",
        "generator": "Open Asset Import Library (assimp v5.0.5eb040c7)"
    },
    "accessors": [
        {
            "bufferView": 0,
            "byteOffset": 0,
            "componentType": 5126,
            "count": 745,
            "type": "VEC3",
            "max": [
                3.7646849155426027,
                9.934809684753418,
                9.537582397460938
            ],
            "min": [
                -3.7646870613098146,
                -9.934810638427735,
                0.0
            ]
        },
        {
            "bufferView": 1,
            "byteOffset": 0,
            "componentType": 5126,
            "count": 745,
            "type": "VEC3",
            "max": [
                1.0358740091323853,
                1.0,
                1.0106220245361329
            ],
            "min": [
                -0.003467000089585781,
                0.0,
                0.0
            ]
        },
        {
            "bufferView": 2,
            "byteOffset": 0,
            "componentType": 5125,
            "count": 2352,
            "type": "SCALAR",
            "max": [
                744
            ],
            "min": [
                0
            ]
        }
    ],
    "buffers": [
        {
            "byteLength": 27288,
            "uri": "result.bin"
        }
    ],
    "bufferViews": [
        {
            "buffer": 0,
            "byteOffset": 0,
            "byteLength": 8940,
            "target": 34962
        },
        {
            "buffer": 0,
            "byteOffset": 8940,
            "byteLength": 8940,
            "target": 34962
        },
        {
            "buffer": 0,
            "byteOffset": 17880,
            "byteLength": 9408,
            "target": 34963
        }
    ],
    "materials": [
        {
            "name": "DefaultMaterial",
            "pbrMetallicRoughness": {
                "baseColorFactor": [
                    0.6000000238418579,
                    0.6000000238418579,
                    0.6000000238418579,
                    1.0
                ],
                "metallicFactor": 0.0
            }
        }
    ],
    "meshes": [
        {
            "name": "WedgeShoe",
            "primitives": [
                {
                    "mode": 4,
                    "material": 0,
                    "indices": 2,
                    "attributes": {
                        "POSITION": 0,
                        "TEXCOORD_0": 1
                    }
                }
            ]
        }
    ],
    "nodes": [
        {
            "name": "input.obj",
            "children": [
                1,
                2
            ]
        },
        {
            "name": "WedgeShoe",
            "mesh": 0
        },
        {
            "name": "node"
        }
    ],
    "scenes": [
        {
            "nodes": [
                0
            ]
        }
    ],
    "scene": 0
}