{
    "asset": {
        "version": "2.0",
        "generator": "Open Asset Import Library (assimp v5.0.5eb040c7)"
    },
    "accessors": [
        {
            "bufferView": 0,
            "byteOffset": 0,
            "componentType": 5126,
            "count": 29760,
            "type": "VEC3",
            "max": [
                11.91349983215332,
                11.826934814453125,
                13.371532440185547
            ],
            "min": [
                -11.913501739501954,
                -3.8334200382232668,
                -13.645294189453125
            ]
        },
        {
            "bufferView": 1,
            "byteOffset": 0,
            "componentType": 5126,
            "count": 29760,
            "type": "VEC3",
            "max": [
                0.9999622106552124,
                0.9966270923614502,
                0.9921653866767883
            ],
            "min": [
                -0.9999620914459229,
                -1.0,
                -0.99150550365448
            ]
        },
        {
            "bufferView": 2,
            "byteOffset": 0,
            "componentType": 5126,
            "count": 29760,
            "type": "VEC2",
            "max": [
                0.999019980430603,
                0.9990299940109253
            ],
            "min": [
                0.033980000764131549,
                0.0009800195693969727
            ]
        },
        {
            "bufferView": 3,
            "byteOffset": 0,
            "componentType": 5125,
            "count": 44640,
            "type": "SCALAR",
            "max": [
                29759
            ],
            "min": [
                0
            ]
        }
    ],
    "buffers": [
        {
            "byteLength": 1130880,
            "uri": "result.bin"
        }
    ],
    "bufferViews": [
        {
            "buffer": 0,
            "byteOffset": 0,
            "byteLength": 357120,
            "target": 34962
        },
        {
            "buffer": 0,
            "byteOffset": 357120,
            "byteLength": 357120,
            "target": 34962
        },
        {
            "buffer": 0,
            "byteOffset": 714240,
            "byteLength": 238080,
            "target": 34962
        },
        {
            "buffer": 0,
            "byteOffset": 952320,
            "byteLength": 178560,
            "target": 34963
        }
    ],
    "materials": [
        {
            "name": "DefaultMaterial",
            "pbrMetallicRoughness": {
                "baseColorFactor": [
                    0.6000000238418579,
                    0.6000000238418579,
                    0.6000000238418579,
                    1.0
                ],
                "metallicFactor": 0.0
            }
        },
        {
            "name": "defaultMat",
            "pbrMetallicRoughness": {
                "baseColorFactor": [
                    0.6000000238418579,
                    0.6000000238418579,
                    0.6000000238418579,
                    1.0
                ],
                "metallicFactor": 0.0
            }
        }
    ],
    "meshes": [
        {
            "name": "defaultobject",
            "primitives": [
                {
                    "mode": 4,
                    "material": 1,
                    "indices": 3,
                    "attributes": {
                        "POSITION": 0,
                        "NORMAL": 1,
                        "TEXCOORD_0": 2
                    }
                }
            ]
        }
    ],
    "nodes": [
        {
            "name": "input.obj",
            "children": [
                1
            ]
        },
        {
            "name": "defaultobject",
            "mesh": 0
        }
    ],
    "scenes": [
        {
            "nodes": [
                0
            ]
        }
    ],
    "scene": 0
}