{
    "asset": {
        "version": "2.0",
        "generator": "Open Asset Import Library (assimp v5.0.5eb040c7)"
    },
    "accessors": [
        {
            "bufferView": 0,
            "byteOffset": 0,
            "componentType": 5126,
            "count": 33996,
            "type": "VEC3",
            "max": [
                0.1773969978094101,
                0.09027700126171112,
                0.1498199999332428
            ],
            "min": [
                -0.1773969978094101,
                -0.03543100133538246,
                -0.0912029966711998
            ]
        },
        {
            "bufferView": 1,
            "byteOffset": 0,
            "componentType": 5126,
            "count": 33996,
            "type": "VEC3",
            "max": [
                0.9999923706054688,
                0.9999808073043823,
                0.9996770024299622
            ],
            "min": [
                -0.9999923706054688,
                -0.9999982118606567,
                -0.9999350309371948
            ]
        },
        {
            "bufferView": 2,
            "byteOffset": 0,
            "componentType": 5126,
            "count": 33996,
            "type": "VEC2",
            "max": [
                0.9836789965629578,
                0.9989110231399536
            ],
            "min": [
                0.0010890000266954303,
                0.0010889768600463868
            ]
        },
        {
            "bufferView": 3,
            "byteOffset": 0,
            "componentType": 5125,
            "count": 143760,
            "type": "SCALAR",
            "max": [
                33995
            ],
            "min": [
                0
            ]
        }
    ],
    "buffers": [
        {
            "byteLength": 1662912,
            "uri": "result.bin"
        }
    ],
    "bufferViews": [
        {
            "buffer": 0,
            "byteOffset": 0,
            "byteLength": 407952,
            "target": 34962
        },
        {
            "buffer": 0,
            "byteOffset": 407952,
            "byteLength": 407952,
            "target": 34962
        },
        {
            "buffer": 0,
            "byteOffset": 815904,
            "byteLength": 271968,
            "target": 34962
        },
        {
            "buffer": 0,
            "byteOffset": 1087872,
            "byteLength": 575040,
            "target": 34963
        }
    ],
    "materials": [
        {
            "name": "DefaultMaterial",
            "pbrMetallicRoughness": {
                "baseColorFactor": [
                    0.6000000238418579,
                    0.6000000238418579,
                    0.6000000238418579,
                    1.0
                ],
                "metallicFactor": 0.0
            }
        },
        {
            "name": "shoe",
            "pbrMetallicRoughness": {
                "baseColorFactor": [
                    0.6000000238418579,
                    0.6000000238418579,
                    0.6000000238418579,
                    1.0
                ],
                "metallicFactor": 0.0
            }
        }
    ],
    "meshes": [
        {
            "name": "Shoe_Plane.003",
            "primitives": [
                {
                    "mode": 4,
                    "material": 1,
                    "indices": 3,
                    "attributes": {
                        "POSITION": 0,
                        "NORMAL": 1,
                        "TEXCOORD_0": 2
                    }
                }
            ]
        }
    ],
    "nodes": [
        {
            "name": "input.obj",
            "children": [
                1
            ]
        },
        {
            "name": "Shoe_Plane.003",
            "mesh": 0
        }
    ],
    "scenes": [
        {
            "nodes": [
                0
            ]
        }
    ],
    "scene": 0
}