{
    "asset": {
        "version": "2.0",
        "generator": "Open Asset Import Library (assimp v5.0.5eb040c7)"
    },
    "accessors": [
        {
            "bufferView": 0,
            "byteOffset": 0,
            "componentType": 5126,
            "count": 6785,
            "type": "VEC3",
            "max": [
                0.17684899270534516,
                1.600013017654419,
                0.1400890052318573
            ],
            "min": [
                -0.176829993724823,
                0.8517950177192688,
                -0.12303700298070908
            ]
        },
        {
            "bufferView": 1,
            "byteOffset": 0,
            "componentType": 5126,
            "count": 6785,
            "type": "VEC3",
            "max": [
                0.9999397993087769,
                0.9843451976776123,
                0.9999927282333374
            ],
            "min": [
                -0.9999935626983643,
                -0.9921960234642029,
                -0.999991774559021
            ]
        },
        {
            "bufferView": 2,
            "byteOffset": 0,
            "componentType": 5126,
            "count": 6785,
            "type": "VEC2",
            "max": [
                0.7831940054893494,
                0.9889829754829407
            ],
            "min": [
                0.0078959995880723,
                0.40412402153015139
            ]
        },
        {
            "bufferView": 3,
            "byteOffset": 0,
            "componentType": 5125,
            "count": 37500,
            "type": "SCALAR",
            "max": [
                6784
            ],
            "min": [
                0
            ]
        },
        {
            "bufferView": 4,
            "byteOffset": 0,
            "componentType": 5126,
            "count": 192,
            "type": "VEC3",
            "max": [
                0.1767369955778122,
                0.8917059898376465,
                0.09287799894809723
            ],
            "min": [
                -0.1767899990081787,
                0.8445960283279419,
                -0.07680399715900421
            ]
        },
        {
            "bufferView": 5,
            "byteOffset": 0,
            "componentType": 5126,
            "count": 192,
            "type": "VEC3",
            "max": [
                0.9999397993087769,
                0.00560007942840457,
                0.9972038269042969
            ],
            "min": [
                -0.9997897744178772,
                -0.25160324573516848,
                -0.9991892576217651
            ]
        },
        {
            "bufferView": 6,
            "byteOffset": 0,
            "componentType": 5126,
            "count": 192,
            "type": "VEC2",
            "max": [
                0.7550370097160339,
                0.9921039938926697
            ],
            "min": [
                0.03605400025844574,
                0.9825090169906616
            ]
        },
        {
            "bufferView": 7,
            "byteOffset": 0,
            "componentType": 5125,
            "count": 552,
            "type": "SCALAR",
            "max": [
                191
            ],
            "min": [
                0
            ]
        },
        {
            "bufferView": 8,
            "byteOffset": 0,
            "componentType": 5126,
            "count": 7318,
            "type": "VEC3",
            "max": [
                0.507964015007019,
                1.648406982421875,
                0.13707800209522248
            ],
            "min": [
                -0.508309006690979,
                1.1283429861068726,
                -0.10102099925279618
            ]
        },
        {
            "bufferView": 9,
            "byteOffset": 0,
            "componentType": 5126,
            "count": 7318,
            "type": "VEC3",
            "max": [
                0.9992522597312927,
                0.9821130037307739,
                0.9999924898147583
            ],
            "min": [
                -0.9992371797561646,
                -0.9958397746086121,
                -0.9999910593032837
            ]
        },
        {
            "bufferView": 10,
            "byteOffset": 0,
            "componentType": 5126,
            "count": 7318,
            "type": "VEC2",
            "max": [
                0.9308739900588989,
                0.3058069944381714
            ],
            "min": [
                0.1319199949502945,
                0.010501980781555176
            ]
        },
        {
            "bufferView": 11,
            "byteOffset": 0,
            "componentType": 5125,
            "count": 41805,
            "type": "SCALAR",
            "max": [
                7317
            ],
            "min": [
                0
            ]
        },
        {
            "bufferView": 12,
            "byteOffset": 0,
            "componentType": 5126,
            "count": 174,
            "type": "VEC3",
            "max": [
                0.5127180218696594,
                1.6570550203323365,
                0.05452200025320053
            ],
            "min": [
                -0.5130720138549805,
                1.1224039793014527,
                -0.05570400133728981
            ]
        },
        {
            "bufferView": 13,
            "byteOffset": 0,
            "componentType": 5126,
            "count": 174,
            "type": "VEC3",
            "max": [
                0.9971375465393066,
                0.6050963401794434,
                0.9949027299880981
            ],
            "min": [
                -0.9999068975448608,
                -0.7130815982818604,
                -0.998656690120697
            ]
        },
        {
            "bufferView": 14,
            "byteOffset": 0,
            "componentType": 5126,
            "count": 174,
            "type": "VEC2",
            "max": [
                0.8949329853057861,
                0.3191800117492676
            ],
            "min": [
                0.1678609997034073,
                0.007896006107330323
            ]
        },
        {
            "bufferView": 15,
            "byteOffset": 0,
            "componentType": 5125,
            "count": 516,
            "type": "SCALAR",
            "max": [
                173
            ],
            "min": [
                0
            ]
        }
    ],
    "buffers": [
        {
            "byteLength": 784500,
            "uri": "result.bin"
        }
    ],
    "bufferViews": [
        {
            "buffer": 0,
            "byteOffset": 0,
            "byteLength": 81420,
            "target": 34962
        },
        {
            "buffer": 0,
            "byteOffset": 81420,
            "byteLength": 81420,
            "target": 34962
        },
        {
            "buffer": 0,
            "byteOffset": 162840,
            "byteLength": 54280,
            "target": 34962
        },
        {
            "buffer": 0,
            "byteOffset": 217120,
            "byteLength": 150000,
            "target": 34963
        },
        {
            "buffer": 0,
            "byteOffset": 367120,
            "byteLength": 2304,
            "target": 34962
        },
        {
            "buffer": 0,
            "byteOffset": 369424,
            "byteLength": 2304,
            "target": 34962
        },
        {
            "buffer": 0,
            "byteOffset": 371728,
            "byteLength": 1536,
            "target": 34962
        },
        {
            "buffer": 0,
            "byteOffset": 373264,
            "byteLength": 2208,
            "target": 34963
        },
        {
            "buffer": 0,
            "byteOffset": 375472,
            "byteLength": 87816,
            "target": 34962
        },
        {
            "buffer": 0,
            "byteOffset": 463288,
            "byteLength": 87816,
            "target": 34962
        },
        {
            "buffer": 0,
            "byteOffset": 551104,
            "byteLength": 58544,
            "target": 34962
        },
        {
            "buffer": 0,
            "byteOffset": 609648,
            "byteLength": 167220,
            "target": 34963
        },
        {
            "buffer": 0,
            "byteOffset": 776868,
            "byteLength": 2088,
            "target": 34962
        },
        {
            "buffer": 0,
            "byteOffset": 778956,
            "byteLength": 2088,
            "target": 34962
        },
        {
            "buffer": 0,
            "byteOffset": 781044,
            "byteLength": 1392,
            "target": 34962
        },
        {
            "buffer": 0,
            "byteOffset": 782436,
            "byteLength": 2064,
            "target": 34963
        }
    ],
    "materials": [
        {
            "name": "DefaultMaterial",
            "pbrMetallicRoughness": {
                "baseColorFactor": [
                    0.6000000238418579,
                    0.6000000238418579,
                    0.6000000238418579,
                    1.0
                ],
                "metallicFactor": 0.0
            }
        },
        {
            "name": "jeans",
            "pbrMetallicRoughness": {
                "baseColorFactor": [
                    0.6000000238418579,
                    0.6000000238418579,
                    0.6000000238418579,
                    1.0
                ],
                "metallicFactor": 0.0
            }
        },
        {
            "name": "jeans.HEM",
            "pbrMetallicRoughness": {
                "baseColorFactor": [
                    0.6000000238418579,
                    0.6000000238418579,
                    0.6000000238418579,
                    1.0
                ],
                "metallicFactor": 0.0
            }
        },
        {
            "name": "shirt",
            "pbrMetallicRoughness": {
                "baseColorFactor": [
                    0.6000000238418579,
                    0.6000000238418579,
                    0.6000000238418579,
                    1.0
                ],
                "metallicFactor": 0.0
            }
        },
        {
            "name": "shirt_collar",
            "pbrMetallicRoughness": {
                "baseColorFactor": [
                    0.6000000238418579,
                    0.6000000238418579,
                    0.6000000238418579,
                    1.0
                ],
                "metallicFactor": 0.0
            }
        }
    ],
    "meshes": [
        {
            "name": "dungaree.001",
            "primitives": [
                {
                    "mode": 4,
                    "material": 1,
                    "indices": 3,
                    "attributes": {
                        "POSITION": 0,
                        "NORMAL": 1,
                        "TEXCOORD_0": 2
                    }
                },
                {
                    "mode": 4,
                    "material": 2,
                    "indices": 7,
                    "attributes": {
                        "POSITION": 4,
                        "NORMAL": 5,
                        "TEXCOORD_0": 6
                    }
                }
            ]
        },
        {
            "name": "dungaree",
            "primitives": [
                {
                    "mode": 4,
                    "material": 3,
                    "indices": 11,
                    "attributes": {
                        "POSITION": 8,
                        "NORMAL": 9,
                        "TEXCOORD_0": 10
                    }
                },
                {
                    "mode": 4,
                    "material": 4,
                    "indices": 15,
                    "attributes": {
                        "POSITION": 12,
                        "NORMAL": 13,
                        "TEXCOORD_0": 14
                    }
                }
            ]
        }
    ],
    "nodes": [
        {
            "name": "input.obj",
            "children": [
                1,
                2
            ]
        },
        {
            "name": "dungaree.001",
            "mesh": 0
        },
        {
            "name": "dungaree",
            "mesh": 1
        }
    ],
    "scenes": [
        {
            "nodes": [
                0
            ]
        }
    ],
    "scene": 0
}